<svg width="35" height="35" viewBox="0 0 35 35" fill="none" xmlns="http://www.w3.org/2000/svg">
<path d="M17.5 32.0833C15.4584 32.0833 13.5504 31.7005 11.7761 30.9349C10.0018 30.1692 8.45835 29.1302 7.14585 27.8177C5.83335 26.5052 4.80037 24.9557 4.0469 23.1692C3.29342 21.3828 2.91669 19.4687 2.91669 17.427C2.91669 15.3854 3.29342 13.4835 4.0469 11.7213C4.80037 9.95916 5.83335 8.42183 7.14585 7.10933C8.45835 5.79683 10.0018 4.76992 11.7761 4.02861C13.5504 3.28729 15.4584 2.91663 17.5 2.91663C19.5417 2.91663 21.4497 3.28729 23.224 4.02861C24.9983 4.76992 26.5417 5.79683 27.8542 7.10933C29.1667 8.42183 30.1997 9.95916 30.9531 11.7213C31.7066 13.4835 32.0834 15.3854 32.0834 17.427C32.0834 19.4687 31.7066 21.3828 30.9531 23.1692C30.1997 24.9557 29.1667 26.5052 27.8542 27.8177C26.5417 29.1302 24.9983 30.1692 23.224 30.9349C21.4497 31.7005 19.5417 32.0833 17.5 32.0833ZM17.5 29.9687C18.3507 29.0937 19.0617 28.0911 19.6328 26.9609C20.204 25.8307 20.6719 24.4878 21.0365 22.9323H14C14.3403 24.3906 14.796 25.7031 15.3672 26.8697C15.9384 28.0364 16.6493 29.0694 17.5 29.9687ZM14.4011 29.5312C13.7934 28.6076 13.2709 27.6111 12.8334 26.5416C12.3959 25.4722 12.0313 24.2691 11.7396 22.9323H6.27085C7.19446 24.6579 8.26391 26.013 9.47919 26.9974C10.6945 27.9817 12.3351 28.8263 14.4011 29.5312ZM20.6354 29.4948C22.3854 28.9357 23.9592 28.0972 25.3568 26.9791C26.7544 25.8611 27.8785 24.5121 28.7292 22.9323H23.2969C22.9809 24.2448 22.6103 25.4357 22.1849 26.5052C21.7596 27.5746 21.2431 28.5711 20.6354 29.4948ZM5.54169 20.7448H11.3386C11.2656 20.0885 11.2231 19.4991 11.211 18.9765C11.1988 18.454 11.1927 17.9375 11.1927 17.427C11.1927 16.8194 11.2049 16.2786 11.2292 15.8046C11.2535 15.3307 11.3021 14.802 11.375 14.2187H5.54169C5.37155 14.802 5.2561 15.3246 5.19533 15.7864C5.13457 16.2482 5.10419 16.7951 5.10419 17.427C5.10419 18.059 5.13457 18.6241 5.19533 19.1224C5.2561 19.6206 5.37155 20.1614 5.54169 20.7448ZM13.599 20.7448H21.4375C21.5347 19.9913 21.5955 19.3776 21.6198 18.9036C21.6441 18.4296 21.6563 17.9375 21.6563 17.427C21.6563 16.9409 21.6441 16.473 21.6198 16.0234C21.5955 15.5737 21.5347 14.9722 21.4375 14.2187H13.599C13.5018 14.9722 13.441 15.5737 13.4167 16.0234C13.3924 16.473 13.3802 16.9409 13.3802 17.427C13.3802 17.9375 13.3924 18.4296 13.4167 18.9036C13.441 19.3776 13.5018 19.9913 13.599 20.7448ZM23.625 20.7448H29.4584C29.6285 20.1614 29.7439 19.6206 29.8047 19.1224C29.8655 18.6241 29.8959 18.059 29.8959 17.427C29.8959 16.7951 29.8655 16.2482 29.8047 15.7864C29.7439 15.3246 29.6285 14.802 29.4584 14.2187H23.6615C23.7344 15.0694 23.783 15.7196 23.8073 16.1692C23.8316 16.6189 23.8438 17.0382 23.8438 17.427C23.8438 17.9618 23.8255 18.4661 23.7891 18.9401C23.7526 19.414 23.6979 20.0156 23.625 20.7448ZM23.2604 12.0312H28.7292C27.9271 10.3541 26.8273 8.95656 25.4297 7.8385C24.0321 6.72045 22.4219 5.93051 20.599 5.46871C21.2066 6.36801 21.7231 7.34024 22.1485 8.38538C22.5738 9.43051 22.9445 10.6458 23.2604 12.0312ZM14 12.0312H21.0729C20.8056 10.743 20.3559 9.49735 19.724 8.29423C19.092 7.0911 18.3507 6.02774 17.5 5.10413C16.7222 5.76038 16.066 6.62322 15.5313 7.69267C14.9965 8.76211 14.4861 10.2083 14 12.0312ZM6.27085 12.0312H11.7761C12.0434 10.7187 12.3837 9.54597 12.7969 8.51298C13.2101 7.47999 13.7327 6.47739 14.3646 5.50517C12.5417 5.96697 10.9497 6.74475 9.58856 7.8385C8.22745 8.93225 7.12155 10.3298 6.27085 12.0312Z" fill="url(#paint0_linear_19_227)"/>
<defs>
<linearGradient id="paint0_linear_19_227" x1="17.5" y1="2.91663" x2="17.5" y2="32.0833" gradientUnits="userSpaceOnUse">
<stop stop-color="#86A1D4"/>
<stop offset="1" stop-color="#3D588D"/>
</linearGradient>
</defs>
</svg>
