<svg width="275" height="38" viewBox="0 0 275 38" fill="none" xmlns="http://www.w3.org/2000/svg">
<path d="M12.14 4.44C15.356 4.44 18.128 5.46 20.456 7.5L17.468 10.632C16.58 9.96 15.752 9.48 14.984 9.192C14.24 8.88 13.376 8.724 12.392 8.724C10.544 8.724 9.068 9.456 7.964 10.92C6.86 12.36 6.308 14.556 6.308 17.508C6.308 20.7 6.728 22.968 7.568 24.312C8.408 25.632 9.716 26.292 11.492 26.292C12.74 26.292 13.868 26.016 14.876 25.464V19.812H11.636L11.06 15.636H20.6V27.984C19.304 28.824 17.876 29.472 16.316 29.928C14.756 30.384 13.196 30.612 11.636 30.612C7.844 30.612 4.988 29.508 3.068 27.3C1.148 25.068 0.188 21.804 0.188 17.508C0.188 14.772 0.704 12.42 1.736 10.452C2.792 8.484 4.22 6.996 6.02 5.988C7.844 4.956 9.884 4.44 12.14 4.44ZM39.6271 24.456C39.6271 25.176 39.7231 25.704 39.9151 26.04C40.1311 26.376 40.4671 26.628 40.9231 26.796L39.7351 30.504C38.5591 30.408 37.5991 30.156 36.8551 29.748C36.1111 29.316 35.5351 28.644 35.1271 27.732C33.8791 29.652 31.9591 30.612 29.3671 30.612C27.4711 30.612 25.9591 30.06 24.8311 28.956C23.7031 27.852 23.1391 26.412 23.1391 24.636C23.1391 22.548 23.9071 20.952 25.4431 19.848C26.9791 18.744 29.1991 18.192 32.1031 18.192H34.0471V17.364C34.0471 16.236 33.8071 15.468 33.3271 15.06C32.8471 14.628 32.0071 14.412 30.8071 14.412C30.1831 14.412 29.4271 14.508 28.5391 14.7C27.6511 14.868 26.7391 15.108 25.8031 15.42L24.5071 11.676C25.7071 11.22 26.9311 10.872 28.1791 10.632C29.4511 10.392 30.6271 10.272 31.7071 10.272C34.4431 10.272 36.4471 10.836 37.7191 11.964C38.9911 13.092 39.6271 14.784 39.6271 17.04V24.456ZM31.0231 26.544C32.3191 26.544 33.3271 25.932 34.0471 24.708V21.324H32.6431C31.3471 21.324 30.3751 21.552 29.7271 22.008C29.1031 22.464 28.7911 23.172 28.7911 24.132C28.7911 24.9 28.9831 25.5 29.3671 25.932C29.7751 26.34 30.3271 26.544 31.0231 26.544ZM54.9938 10.272C57.2738 10.272 59.0258 11.172 60.2498 12.972C61.4738 14.748 62.0858 17.244 62.0858 20.46C62.0858 22.428 61.7738 24.18 61.1498 25.716C60.5498 27.252 59.6738 28.452 58.5218 29.316C57.3938 30.18 56.0498 30.612 54.4898 30.612C53.4578 30.612 52.5098 30.396 51.6458 29.964C50.8058 29.532 50.0858 28.932 49.4858 28.164L49.1978 30H44.1578V3.288L49.8458 2.676V12.828C50.4218 12.036 51.1538 11.412 52.0418 10.956C52.9538 10.5 53.9378 10.272 54.9938 10.272ZM52.8338 26.472C55.0658 26.472 56.1818 24.468 56.1818 20.46C56.1818 18.18 55.9178 16.608 55.3898 15.744C54.8618 14.88 54.0938 14.448 53.0858 14.448C51.8138 14.448 50.7338 15.192 49.8458 16.68V24.636C50.2058 25.212 50.6378 25.668 51.1418 26.004C51.6698 26.316 52.2338 26.472 52.8338 26.472ZM76.0063 10.344C76.7023 10.344 77.3383 10.428 77.9143 10.596L77.0143 16.104C76.2943 15.936 75.7183 15.852 75.2863 15.852C74.1583 15.852 73.2943 16.248 72.6943 17.04C72.1183 17.808 71.6623 18.972 71.3263 20.532V30H65.6383V10.884H70.6063L71.0743 14.592C71.5063 13.272 72.1543 12.24 73.0183 11.496C73.9063 10.728 74.9023 10.344 76.0063 10.344ZM85.7755 10.884V30H80.0875V10.884H85.7755ZM82.8955 0.803998C83.8795 0.803998 84.6835 1.116 85.3075 1.74C85.9555 2.34 86.2795 3.108 86.2795 4.044C86.2795 4.98 85.9555 5.76 85.3075 6.384C84.6835 6.984 83.8795 7.284 82.8955 7.284C81.9115 7.284 81.1075 6.984 80.4835 6.384C79.8595 5.76 79.5475 4.98 79.5475 4.044C79.5475 3.108 79.8595 2.34 80.4835 1.74C81.1075 1.116 81.9115 0.803998 82.8955 0.803998ZM106.916 20.064C106.916 20.856 106.88 21.54 106.808 22.116H94.9636C95.1556 23.724 95.6116 24.852 96.3316 25.5C97.0516 26.148 98.0476 26.472 99.3196 26.472C100.088 26.472 100.832 26.34 101.552 26.076C102.272 25.788 103.052 25.356 103.892 24.78L106.232 27.948C104 29.724 101.516 30.612 98.7796 30.612C95.6836 30.612 93.3076 29.7 91.6516 27.876C89.9956 26.052 89.1676 23.604 89.1676 20.532C89.1676 18.588 89.5156 16.848 90.2116 15.312C90.9076 13.752 91.9276 12.528 93.2716 11.64C94.6156 10.728 96.2236 10.272 98.0956 10.272C100.856 10.272 103.016 11.136 104.576 12.864C106.136 14.592 106.916 16.992 106.916 20.064ZM101.336 18.444C101.288 15.516 100.256 14.052 98.2396 14.052C97.2556 14.052 96.4876 14.412 95.9356 15.132C95.4076 15.852 95.0836 17.04 94.9636 18.696H101.336V18.444ZM115.187 30.612C113.531 30.612 112.235 30.144 111.299 29.208C110.387 28.248 109.931 26.892 109.931 25.14V3.288L115.619 2.676V24.924C115.619 25.716 115.943 26.112 116.591 26.112C116.927 26.112 117.239 26.052 117.527 25.932L118.643 29.964C117.611 30.396 116.459 30.612 115.187 30.612ZM148.673 30H141.149L133.949 10.668C134.189 12.564 134.369 14.244 134.489 15.708C134.633 17.148 134.705 18.864 134.705 20.856V30H129.449V5.052H136.793L144.173 24.42C143.645 21.132 143.381 18.036 143.381 15.132V5.052H148.673V30ZM161.492 10.272C164.42 10.272 166.712 11.172 168.368 12.972C170.024 14.748 170.852 17.244 170.852 20.46C170.852 22.5 170.468 24.288 169.7 25.824C168.956 27.336 167.876 28.512 166.46 29.352C165.068 30.192 163.412 30.612 161.492 30.612C158.588 30.612 156.296 29.724 154.616 27.948C152.96 26.148 152.132 23.64 152.132 20.424C152.132 18.384 152.504 16.608 153.248 15.096C154.016 13.56 155.096 12.372 156.488 11.532C157.904 10.692 159.572 10.272 161.492 10.272ZM161.492 14.448C160.34 14.448 159.476 14.94 158.9 15.924C158.324 16.884 158.036 18.384 158.036 20.424C158.036 22.512 158.312 24.036 158.864 24.996C159.44 25.956 160.316 26.436 161.492 26.436C162.644 26.436 163.508 25.956 164.084 24.996C164.66 24.012 164.948 22.5 164.948 20.46C164.948 18.372 164.66 16.848 164.084 15.888C163.532 14.928 162.668 14.448 161.492 14.448ZM191.84 12C190.592 12.504 188.756 12.756 186.332 12.756C187.58 13.284 188.492 13.932 189.068 14.7C189.644 15.468 189.932 16.464 189.932 17.688C189.932 18.912 189.608 20.016 188.96 21C188.312 21.96 187.376 22.716 186.152 23.268C184.952 23.82 183.536 24.096 181.904 24.096C181.136 24.096 180.404 24.024 179.708 23.88C179.516 23.976 179.36 24.132 179.24 24.348C179.144 24.54 179.096 24.744 179.096 24.96C179.096 25.32 179.228 25.608 179.492 25.824C179.78 26.016 180.344 26.112 181.184 26.112H184.064C185.528 26.112 186.812 26.352 187.916 26.832C189.02 27.312 189.872 27.972 190.472 28.812C191.072 29.652 191.372 30.6 191.372 31.656C191.372 33.648 190.508 35.196 188.78 36.3C187.076 37.428 184.604 37.992 181.364 37.992C179.036 37.992 177.2 37.74 175.856 37.236C174.512 36.756 173.564 36.072 173.012 35.184C172.484 34.296 172.22 33.18 172.22 31.836H177.332C177.332 32.412 177.44 32.868 177.656 33.204C177.896 33.54 178.316 33.792 178.916 33.96C179.516 34.128 180.38 34.212 181.508 34.212C183.068 34.212 184.148 34.02 184.748 33.636C185.348 33.276 185.648 32.748 185.648 32.052C185.648 31.476 185.42 31.02 184.964 30.684C184.508 30.348 183.824 30.18 182.912 30.18H180.14C178.172 30.18 176.696 29.832 175.712 29.136C174.752 28.416 174.272 27.504 174.272 26.4C174.272 25.704 174.476 25.032 174.884 24.384C175.292 23.712 175.844 23.16 176.54 22.728C175.34 22.08 174.464 21.324 173.912 20.46C173.384 19.572 173.12 18.504 173.12 17.256C173.12 15.12 173.888 13.428 175.424 12.18C176.96 10.908 178.988 10.272 181.508 10.272C183.428 10.32 185.048 10.128 186.368 9.696C187.712 9.264 189.092 8.628 190.508 7.788L191.84 12ZM181.652 14.016C180.764 14.016 180.056 14.304 179.528 14.88C179.024 15.432 178.772 16.2 178.772 17.184C178.772 18.216 179.024 19.02 179.528 19.596C180.056 20.148 180.764 20.424 181.652 20.424C182.588 20.424 183.296 20.148 183.776 19.596C184.28 19.044 184.532 18.216 184.532 17.112C184.532 15.048 183.572 14.016 181.652 14.016ZM209.84 30H204.908L204.656 27.588C203.264 29.604 201.332 30.612 198.86 30.612C197.108 30.612 195.776 30.084 194.864 29.028C193.976 27.972 193.532 26.496 193.532 24.6V10.884H199.22V23.88C199.22 24.816 199.364 25.476 199.652 25.86C199.964 26.22 200.432 26.4 201.056 26.4C202.256 26.4 203.288 25.656 204.152 24.168V10.884H209.84V30ZM230.982 20.064C230.982 20.856 230.946 21.54 230.874 22.116H219.03C219.222 23.724 219.678 24.852 220.398 25.5C221.118 26.148 222.114 26.472 223.386 26.472C224.154 26.472 224.898 26.34 225.618 26.076C226.338 25.788 227.118 25.356 227.958 24.78L230.298 27.948C228.066 29.724 225.582 30.612 222.846 30.612C219.75 30.612 217.374 29.7 215.718 27.876C214.062 26.052 213.234 23.604 213.234 20.532C213.234 18.588 213.582 16.848 214.278 15.312C214.974 13.752 215.994 12.528 217.338 11.64C218.682 10.728 220.29 10.272 222.162 10.272C224.922 10.272 227.082 11.136 228.642 12.864C230.202 14.592 230.982 16.992 230.982 20.064ZM225.402 18.444C225.354 15.516 224.322 14.052 222.306 14.052C221.322 14.052 220.554 14.412 220.002 15.132C219.474 15.852 219.15 17.04 219.03 18.696H225.402V18.444ZM239.865 10.884V30H234.177V10.884H239.865ZM236.985 0.803998C237.969 0.803998 238.773 1.116 239.397 1.74C240.045 2.34 240.369 3.108 240.369 4.044C240.369 4.98 240.045 5.76 239.397 6.384C238.773 6.984 237.969 7.284 236.985 7.284C236.001 7.284 235.197 6.984 234.573 6.384C233.949 5.76 233.637 4.98 233.637 4.044C233.637 3.108 233.949 2.34 234.573 1.74C235.197 1.116 236.001 0.803998 236.985 0.803998ZM254.705 10.344C255.401 10.344 256.037 10.428 256.613 10.596L255.713 16.104C254.993 15.936 254.417 15.852 253.985 15.852C252.857 15.852 251.993 16.248 251.393 17.04C250.817 17.808 250.361 18.972 250.025 20.532V30H244.337V10.884H249.305L249.773 14.592C250.205 13.272 250.853 12.24 251.717 11.496C252.605 10.728 253.601 10.344 254.705 10.344ZM272.713 24.456C272.713 25.176 272.809 25.704 273.001 26.04C273.217 26.376 273.553 26.628 274.009 26.796L272.821 30.504C271.645 30.408 270.685 30.156 269.941 29.748C269.197 29.316 268.621 28.644 268.213 27.732C266.965 29.652 265.045 30.612 262.453 30.612C260.557 30.612 259.045 30.06 257.917 28.956C256.789 27.852 256.225 26.412 256.225 24.636C256.225 22.548 256.993 20.952 258.529 19.848C260.065 18.744 262.285 18.192 265.189 18.192H267.133V17.364C267.133 16.236 266.893 15.468 266.413 15.06C265.933 14.628 265.093 14.412 263.893 14.412C263.269 14.412 262.513 14.508 261.625 14.7C260.737 14.868 259.825 15.108 258.889 15.42L257.593 11.676C258.793 11.22 260.017 10.872 261.265 10.632C262.537 10.392 263.713 10.272 264.793 10.272C267.529 10.272 269.533 10.836 270.805 11.964C272.077 13.092 272.713 14.784 272.713 17.04V24.456ZM264.109 26.544C265.405 26.544 266.413 25.932 267.133 24.708V21.324H265.729C264.433 21.324 263.461 21.552 262.813 22.008C262.189 22.464 261.877 23.172 261.877 24.132C261.877 24.9 262.069 25.5 262.453 25.932C262.861 26.34 263.413 26.544 264.109 26.544Z" fill="#020202"/>
</svg>
